HIERARCHY
ROOT Hips
{
	OFFSET -21.947001 39.810204 44.525997
	CHANNELS 6 Xposition Yposition Zposition Zrotation Xrotation Yrotation
	JOINT Chest
	{
		OFFSET -0.201599 0.334099 6.453201
		CHANNELS 6 Xposition Yposition Zposition Zrotation Xrotation Yrotation
		JOINT Chest2
		{
			OFFSET 0.000000 0.000000 3.568001
			CHANNELS 6 Xposition Yposition Zposition Zrotation Xrotation Yrotation
			JOINT Neck
			{
				OFFSET 0.000000 0.000000 8.296402
				CHANNELS 6 Xposition Yposition Zposition Zrotation Xrotation Yrotation
				JOINT Head
				{
					OFFSET 0.000000 0.000000 2.173901
					CHANNELS 6 Xposition Yposition Zposition Zrotation Xrotation Yrotation
					End Site
					{
						OFFSET 0.000000 0.000000 7.891998
					}
				}
			}
			JOINT LeftCollar
			{
				OFFSET 1.927601 0.221401 6.049000
				CHANNELS 6 Xposition Yposition Zposition Zrotation Xrotation Yrotation
				JOINT LeftShoulder
				{
					OFFSET 4.959700 0.000000 0.000000
					CHANNELS 6 Xposition Yposition Zposition Zrotation Xrotation Yrotation
					JOINT LeftElbow
					{
						OFFSET 0.000000 0.000000 -8.654202
						CHANNELS 6 Xposition Yposition Zposition Zrotation Xrotation Yrotation
						JOINT LeftWrist
						{
							OFFSET 0.000000 0.000000 -13.864101
							CHANNELS 6 Xposition Yposition Zposition Zrotation Xrotation Yrotation
							End Site
							{
								OFFSET 0.000000 0.000000 -2.173901
							}
						}
					}
				}
			}
			JOINT RightCollar
			{
				OFFSET -3.155701 -0.764999 6.687801
				CHANNELS 6 Xposition Yposition Zposition Zrotation Xrotation Yrotation
				JOINT RightShoulder
				{
					OFFSET -3.592899 0.000000 0.000000
					CHANNELS 6 Xposition Yposition Zposition Zrotation Xrotation Yrotation
					JOINT RightElbow
					{
						OFFSET 0.000000 0.000000 -10.352398
						CHANNELS 6 Xposition Yposition Zposition Zrotation Xrotation Yrotation
						JOINT RightWrist
						{
							OFFSET 0.000000 0.000000 -12.750301
							CHANNELS 6 Xposition Yposition Zposition Zrotation Xrotation Yrotation
							End Site
							{
								OFFSET 0.000000 0.000000 -2.173901
							}
						}
					}
				}
			}
		}
	}
	JOINT LeftHip
	{
		OFFSET 2.460600 -0.518101 -2.735500
		CHANNELS 6 Xposition Yposition Zposition Zrotation Xrotation Yrotation
		JOINT LeftKnee
		{
			OFFSET 0.000000 -0.000004 -17.005899
			CHANNELS 6 Xposition Yposition Zposition Zrotation Xrotation Yrotation
			JOINT LeftAnkle
			{
				OFFSET 0.000000 0.000000 -19.194401
				CHANNELS 6 Xposition Yposition Zposition Zrotation Xrotation Yrotation
				End Site
				{
					OFFSET 0.000000 -8.134600 0.000000
				}
			}
		}
	}
	JOINT RightHip
	{
		OFFSET -3.115499 -0.679600 -2.320301
		CHANNELS 6 Xposition Yposition Zposition Zrotation Xrotation Yrotation
		JOINT RightKnee
		{
			OFFSET 0.000000 -0.000004 -17.680401
			CHANNELS 6 Xposition Yposition Zposition Zrotation Xrotation Yrotation
			JOINT RightAnkle
			{
				OFFSET 0.000000 0.000000 -16.993797
				CHANNELS 6 Xposition Yposition Zposition Zrotation Xrotation Yrotation
				End Site
				{
					OFFSET 0.000000 -8.842300 0.000000
				}
			}
		}
	}
}
MOTION
Frames: 10
Frame Time: 0.041667
-11.545001 39.757305 45.600391 1876.503442 -1.320756 5.075402 -0.201594 0.334095 6.453198 -8.901500 -13.378740 -21.398969 0.000002 0.000011 3.568009 1.829533 -0.427708 0.263580 -0.000001 -0.000002 8.296391 -51.296691 -11.332389 -13.439067 -0.000001 -0.000001 2.173896 -3.401639 3.376600 -6.840422 1.927598 0.221404 6.048996 -16.978143 3.305967 -14.665405 4.959704 0.000004 0.000007 134.833316 199.749907 53.024469 0.000003 0.000000 -8.654196 73.670871 -11.448959 13.204981 0.000004 -0.000003 -13.864099 2078.845774 -161.558426 234.799227 -3.155705 -0.764997 6.687800 44.392060 5.424095 -12.521578 -3.592902 -0.000006 0.000004 49.166454 -20.107771 91.802489 -0.000007 -0.000004 -10.352396 -190.855293 -120.353698 -152.945038 0.000002 0.000002 -12.750292 71.600299 7.342284 72.239072 2.460601 -0.518105 -2.735504 -10.955445 16.707351 0.941500 -0.000005 -0.000005 -17.005898 -133.112669 184.803923 -166.891479 -0.000006 0.000002 -19.194401 341.533501 33.110336 -9.057425 -3.115494 -0.679601 -2.320304 -20.642075 -20.515508 -8.295538 -0.000003 -0.000005 -17.680401 -63.662315 161.745956 -231.302744 0.000003 -0.000001 -16.993795 314.478111 40.661298 -43.947968
-11.543696 39.742104 45.600197 1876.477432 -1.225748 5.067151 -0.201596 0.334096 6.453196 -8.835955 -13.628143 -21.420481 -0.000003 0.000005 3.567990 1.812839 -0.321531 0.276105 0.000008 -0.000004 8.296391 -51.300578 -11.414668 -13.308502 -0.000003 0.000004 2.173897 -3.348042 3.372776 -7.044168 1.927608 0.221401 6.048990 -17.303287 3.327072 -14.373686 4.959709 0.000005 0.000008 135.104912 199.572882 52.894375 -0.000002 0.000002 -8.654195 74.141048 -11.423291 13.267611 -0.000010 0.000005 -13.864101 2078.151608 -161.387630 234.541866 -3.155698 -0.765000 6.687796 44.682865 5.736410 -12.404295 -3.592906 0.000001 0.000007 49.001440 -20.311290 92.106945 -0.000006 0.000002 -10.352392 -190.931094 -120.389133 -153.008832 0.000000 -0.000004 -12.750299 71.606501 7.350653 72.246340 2.460597 -0.518100 -2.735507 -11.033203 16.615350 0.939291 -0.000005 -0.000003 -17.005898 -132.892464 184.788965 -166.866466 -0.000000 0.000005 -19.194395 341.593470 33.069522 -9.114025 -3.115493 -0.679595 -2.320304 -20.679127 -20.606411 -8.315966 -0.000002 -0.000004 -17.680405 -63.621464 161.814326 -231.325038 0.000004 -0.000000 -16.993793 314.429616 40.620556 -43.919991
-11.541604 39.723907 45.599796 1876.445522 -1.144073 5.051033 -0.201594 0.334102 6.453202 -8.784382 -13.848599 -21.426817 0.000003 0.000004 3.567997 1.814901 -0.238724 0.287302 -0.000004 -0.000004 8.296403 -51.224158 -11.430862 -13.129779 -0.000004 0.000002 2.173907 -3.380581 3.295215 -7.226653 1.927601 0.221399 6.049000 -17.590531 3.367158 -14.068817 4.959702 -0.000002 0.000006 135.331674 199.402633 52.724501 0.000006 -0.000001 -8.654197 74.570906 -11.377534 13.323361 -0.000007 -0.000000 -13.864102 2077.528477 -161.280137 234.343299 -3.155707 -0.764999 6.687800 44.965912 6.041932 -12.337878 -3.592906 -0.000004 0.000006 48.847351 -20.492733 92.458618 -0.000010 -0.000005 -10.352404 -191.072479 -120.413462 -153.180420 -0.000002 -0.000005 -12.750296 71.639511 7.401073 72.250800 2.460598 -0.518093 -2.735497 -11.156221 16.591884 0.938264 -0.000012 -0.000002 -17.005890 -132.657204 184.803800 -166.785966 -0.000002 0.000003 -19.194397 341.659969 33.046661 -9.125919 -3.115497 -0.679594 -2.320299 -20.716959 -20.680447 -8.331460 -0.000007 -0.000002 -17.680401 -63.551987 161.901438 -231.320940 0.000004 -0.000003 -16.993793 314.381887 40.593300 -43.918676
-11.539198 39.703003 45.599091 1876.404868 -1.080430 5.027099 -0.201600 0.334097 6.453199 -8.722311 -14.040191 -21.413651 0.000001 -0.000001 3.567995 1.824104 -0.171228 0.297300 -0.000002 0.000002 8.296392 -51.202831 -11.474969 -13.010130 0.000004 0.000001 2.173907 -3.407549 3.262768 -7.323261 1.927593 0.221403 6.048995 -17.821499 3.417739 -13.776128 4.959704 -0.000005 0.000013 135.492211 199.257614 52.530384 -0.000003 0.000000 -8.654187 74.824879 -11.350723 13.355512 0.000000 -0.000003 -13.864087 2077.152761 -161.199158 234.204291 -3.155708 -0.764999 6.687798 45.216416 6.308466 -12.305590 -3.592912 -0.000003 0.000005 48.768066 -20.663296 92.928132 -0.000011 0.000001 -10.352394 -191.307055 -120.511544 -153.517149 0.000001 -0.000004 -12.750283 71.646724 7.480910 72.247084 2.460599 -0.518097 -2.735504 -11.314179 16.571292 0.910193 -0.000003 -0.000005 -17.005898 -132.408504 184.780782 -166.681355 -0.000003 0.000004 -19.194393 341.730156 33.038496 -9.113125 -3.115502 -0.679597 -2.320304 -20.737245 -20.732918 -8.335974 -0.000008 -0.000003 -17.680401 -63.461371 162.002648 -231.309165 0.000000 -0.000001 -16.993793 314.323257 40.558237 -43.944932
-11.536601 39.679306 45.598492 1876.357221 -1.034981 4.997400 -0.201592 0.334097 6.453192 -8.677670 -14.190693 -21.378277 -0.000004 0.000001 3.567997 1.849478 -0.123182 0.306232 0.000005 0.000002 8.296392 -51.187418 -11.501063 -12.923263 -0.000002 -0.000004 2.173908 -3.445855 3.237233 -7.360948 1.927604 0.221403 6.048997 -17.996437 3.478619 -13.533942 4.959704 0.000001 0.000008 135.627913 199.143768 52.342813 -0.000005 -0.000004 -8.654190 74.922572 -11.344148 13.371016 0.000002 0.000003 -13.864097 2076.943157 -161.171974 234.063698 -3.155701 -0.764997 6.687799 45.412821 6.516528 -12.318084 -3.592900 -0.000008 0.000007 48.642381 -20.698335 93.230832 -0.000007 0.000005 -10.352397 -191.394113 -120.529384 -153.612443 -0.000001 -0.000003 -12.750299 71.625817 7.545213 72.217400 2.460603 -0.518101 -2.735506 -11.489166 16.586095 0.943448 0.000003 -0.000006 -17.005899 -132.140719 184.808253 -166.590390 -0.000002 0.000003 -19.194401 341.770017 33.048348 -9.078767 -3.115492 -0.679600 -2.320308 -20.735756 -20.761335 -8.335796 -0.000007 -0.000003 -17.680397 -63.344445 162.116193 -231.292608 0.000001 -0.000007 -16.993801 314.241048 40.505658 -44.006328
-11.534001 39.653202 45.597992 1876.303891 -1.034930 4.992588 -0.201600 0.334099 6.453196 -8.644156 -14.246489 -21.355877 -0.000006 0.000005 3.567996 1.867441 -0.113970 0.309681 -0.000005 -0.000004 8.296402 -51.162195 -11.524153 -12.845327 0.000001 0.000001 2.173907 -3.483259 3.207720 -7.347321 1.927603 0.221406 6.049000 -18.105298 3.539179 -13.335010 4.959698 0.000005 0.000005 135.758793 199.060508 52.175979 0.000002 0.000000 -8.654199 74.862521 -11.369961 13.385689 -0.000009 0.000002 -13.864106 2076.900755 -161.152603 233.907533 -3.155704 -0.764995 6.687807 45.594159 6.690025 -12.387667 -3.592900 -0.000010 0.000011 48.535164 -20.816385 93.564712 -0.000015 -0.000003 -10.352394 -191.372844 -120.526570 -153.762571 -0.000003 -0.000007 -12.750294 71.593797 7.583700 72.170484 2.460599 -0.518100 -2.735505 -11.668933 16.652797 0.959723 -0.000007 -0.000009 -17.005896 -131.827938 184.833088 -166.487145 0.000003 0.000004 -19.194397 341.744526 33.076888 -9.015349 -3.115499 -0.679598 -2.320313 -20.720205 -20.732406 -8.349138 -0.000005 -0.000007 -17.680401 -63.183744 162.257919 -231.276981 0.000004 0.000001 -16.993797 314.125646 40.422371 -44.146245
-11.533897 39.626602 45.598595 1876.281160 -1.050874 5.009970 -0.201603 0.334098 6.453192 -8.671364 -14.207144 -21.371674 -0.000008 0.000005 3.567994 1.893449 -0.154633 0.307375 0.000000 0.000000 8.296397 -51.153179 -11.583091 -12.757194 0.000001 0.000005 2.173900 -3.459018 3.194268 -7.339351 1.927604 0.221400 6.048995 -18.118064 3.590107 -13.104814 4.959707 0.000002 0.000002 135.849703 198.977235 51.978972 0.000000 -0.000005 -8.654200 74.670053 -11.427356 13.399910 -0.000001 -0.000002 -13.864089 2076.975942 -161.121458 233.730822 -3.155701 -0.765000 6.687793 45.739755 6.848149 -12.475585 -3.592906 -0.000003 -0.000002 48.472801 -20.663487 93.841581 -0.000004 -0.000007 -10.352396 -191.407924 -120.520983 -153.737149 0.000000 0.000001 -12.750292 71.540644 7.602373 72.108807 2.460594 -0.518101 -2.735518 -11.765196 16.707177 0.937146 -0.000005 -0.000005 -17.005899 -131.506645 184.823403 -166.407491 0.000000 0.000005 -19.194397 341.559100 33.134798 -8.910937 -3.115501 -0.679601 -2.320311 -20.677703 -20.667954 -8.372310 -0.000008 -0.000008 -17.680395 -63.056969 162.386218 -231.248622 0.000005 -0.000007 -16.993792 313.996391 40.314642 -44.340861
-11.535899 39.597908 45.600697 1876.262800 -1.076749 5.046823 -0.201602 0.334100 6.453194 -8.723746 -14.125081 -21.413620 -0.000002 0.000006 3.568000 1.921611 -0.207135 0.303711 -0.000005 0.000002 8.296404 -51.126333 -11.670649 -12.658928 0.000006 0.000001 2.173908 -3.406909 3.176429 -7.329870 1.927601 0.221408 6.049005 -18.118877 3.628655 -12.869561 4.959702 -0.000001 0.000008 135.969095 198.896707 51.784623 -0.000000 -0.000009 -8.654200 74.363015 -11.525578 13.413733 -0.000003 -0.000002 -13.864091 2077.104896 -161.063306 233.488323 -3.155702 -0.764996 6.687805 45.888302 7.003103 -12.584209 -3.592912 0.000000 0.000007 48.412053 -20.410514 94.133940 -0.000010 0.000008 -10.352398 -191.459177 -120.529958 -153.667522 -0.000001 -0.000004 -12.750292 71.453280 7.628656 72.056385 2.460593 -0.518100 -2.735510 -11.787455 16.753510 0.884299 -0.000006 -0.000012 -17.005898 -131.186555 184.795686 -166.346170 -0.000004 0.000006 -19.194397 341.290155 33.197762 -8.802572 -3.115498 -0.679601 -2.320307 -20.580897 -20.570520 -8.392351 -0.000006 -0.000007 -17.680395 -62.992827 162.501894 -231.191030 0.000000 -0.000002 -16.993793 313.856919 40.194704 -44.566373
-11.538997 39.566704 45.604294 1876.254276 -1.115108 5.086208 -0.201604 0.334099 6.453195 -8.804874 -14.008591 -21.439906 0.000004 0.000001 3.567992 1.960084 -0.263480 0.300484 -0.000003 0.000000 8.296394 -51.068645 -11.773195 -12.575428 0.000006 0.000001 2.173906 -3.363297 3.153365 -7.295776 1.927595 0.221404 6.048990 -18.128864 3.660762 -12.668488 4.959712 0.000001 0.000008 136.134194 198.821110 51.612967 0.000001 0.000004 -8.654196 74.181319 -11.606918 13.464051 0.000001 0.000002 -13.864089 2077.034299 -160.989580 233.192876 -3.155705 -0.765002 6.687799 46.014301 7.131449 -12.726254 -3.592900 -0.000004 0.000004 48.365430 -20.109692 94.437774 -0.000008 0.000002 -10.352398 -191.560783 -120.532703 -153.627210 0.000000 -0.000006 -12.750287 71.402067 7.625064 72.016278 2.460597 -0.518100 -2.735505 -11.773273 16.801391 0.825898 -0.000001 -0.000001 -17.005896 -130.858146 184.761507 -166.294766 -0.000002 0.000007 -19.194397 340.957497 33.271013 -8.690228 -3.115495 -0.679597 -2.320308 -20.474940 -20.450078 -8.401411 -0.000008 0.000001 -17.680397 -62.962439 162.611231 -231.119395 0.000000 -0.000001 -16.993797 313.706928 40.069667 -44.783727
-11.544597 39.533302 45.608391 1876.253184 -1.146295 5.127431 -0.201598 0.334096 6.453203 -8.883862 -13.887410 -21.447253 -0.000005 0.000003 3.567998 1.986450 -0.320735 0.296089 0.000004 -0.000004 8.296401 -50.988800 -11.909108 -12.542419 0.000000 -0.000001 2.173908 -3.322394 3.126391 -7.212335 1.927604 0.221399 6.048995 -18.111254 3.688814 -12.502323 4.959713 0.000000 0.000001 136.280852 198.765075 51.455855 -0.000003 -0.000005 -8.654191 74.076748 -11.675525 13.532150 -0.000004 -0.000005 -13.864104 2076.913213 -160.919257 232.906391 -3.155700 -0.764999 6.687802 46.132754 7.238086 -12.884464 -3.592901 -0.000012 0.000008 48.320225 -19.831806 94.759326 -0.000005 -0.000002 -10.352398 -191.701854 -120.521966 -153.664421 -0.000005 0.000000 -12.750290 71.380825 7.622015 71.996669 2.460601 -0.518104 -2.735498 -11.726351 16.831263 0.751344 -0.000003 -0.000001 -17.005898 -130.611863 184.726633 -166.266694 -0.000004 0.000003 -19.194399 340.672105 33.333130 -8.610151 -3.115496 -0.679600 -2.320305 -20.381720 -20.338019 -8.404109 -0.000013 -0.000010 -17.680399 -63.026438 162.672621 -231.032761 0.000008 -0.000003 -16.993797 313.600513 39.973897 -44.907920
